HIERARCHY
ROOT Hips
{
	OFFSET 0.00000 0.00000 0.00000
	CHANNELS 6 Xposition Yposition Zposition Zrotation Yrotation Xrotation 
	JOINT LHipJoint
	{
		OFFSET 0 0 0
		CHANNELS 3 Zrotation Yrotation Xrotation
		JOINT LeftHip
		{
			OFFSET 1.84395 -1.68683 0.74144
			CHANNELS 3 Zrotation Yrotation Xrotation
			JOINT LeftKnee
			{
				OFFSET 2.27037 -6.23779 0.00000
				CHANNELS 3 Zrotation Yrotation Xrotation
				JOINT LeftAnkle
				{
					OFFSET 2.56918 -7.05877 0.00000
					CHANNELS 3 Zrotation Yrotation Xrotation
					JOINT LeftToe
					{
						OFFSET 0.22276 -0.61202 1.71784
						CHANNELS 3 Zrotation Yrotation Xrotation
						End Site
						{
							OFFSET 0.00000 -0.00000 0.91613
						}
					}
				}
			}
		}
	}
	JOINT RHipJoint
	{
		OFFSET 0 0 0
		CHANNELS 3 Zrotation Yrotation Xrotation
		JOINT RightHip
		{
			OFFSET -1.76833 -1.68684 0.74144
			CHANNELS 3 Zrotation Yrotation Xrotation
			JOINT RightKnee
			{
				OFFSET -2.49360 -6.85110 0.00000
				CHANNELS 3 Zrotation Yrotation Xrotation
				JOINT RightAnkle
				{
					OFFSET -2.55538 -7.02085 0.00000
					CHANNELS 3 Zrotation Yrotation Xrotation
					JOINT RightToe
					{
						OFFSET -0.21516 -0.59115 1.68050
						CHANNELS 3 Zrotation Yrotation Xrotation
						End Site
						{
							OFFSET -0.00000 -0.00000 0.89604
						}
					}
				}
			}
		}
	}
	JOINT lowerback
	{
		OFFSET 0 0 0
		CHANNELS 3 Zrotation Yrotation Xrotation
		JOINT Chest
		{
			OFFSET 0.06382 1.72312 -0.19613
			CHANNELS 3 Zrotation Yrotation Xrotation
			JOINT Chest2
			{
				OFFSET -0.00055 1.73507 0.23859
				CHANNELS 3 Zrotation Yrotation Xrotation
				JOINT lowerneck
				{
					OFFSET 0 0 0
					CHANNELS 3 Zrotation Yrotation Xrotation
					JOINT Neck
					{
						OFFSET 0.03638 1.65562 0.09633
						CHANNELS 3 Zrotation Yrotation Xrotation
						JOINT Head
						{
							OFFSET 0.06388 1.62807 -0.32386
							CHANNELS 3 Zrotation Yrotation Xrotation
							End Site
							{
								OFFSET 0.00995 1.67644 -0.12021
							}
						}
					}
				}
				JOINT LeftCollar
				{
					OFFSET 0 0 0
					CHANNELS 3 Zrotation Yrotation Xrotation
					JOINT LeftShoulder
					{
						OFFSET 3.09648 1.42991 0.28122
CHANNELS 3 Zrotation Xrotation Yrotation
						JOINT LeftElbow
						{
OFFSET 0 -5.118780 -0.000000
CHANNELS 3 Zrotation Xrotation Yrotation
							JOINT LeftWrist
							{
OFFSET 0 -3.599710 0.000000
CHANNELS 3 Zrotation Xrotation Yrotation
								JOINT lhand
								{
									OFFSET 0 0 0
CHANNELS 3 Zrotation Xrotation Yrotation
									JOINT LFingers
									{
OFFSET 0 -0.628770 0.000000
CHANNELS 3 Zrotation Xrotation Yrotation
										End Site
										{
OFFSET 0 -0.506930 0.000000
										}
									}
								}
								JOINT LThumb
								{
OFFSET 0 0.000000 0.000000
CHANNELS 3 Zrotation Xrotation Yrotation
									End Site
									{
OFFSET 0 -0.514670 0.514670
									}
								}
							}
						}
					}
				}
				JOINT RightCollar
				{
					OFFSET 0 0 0
					CHANNELS 3 Zrotation Yrotation Xrotation
					JOINT RightShoulder
					{
						OFFSET -3.33565 1.14597 0.05047
CHANNELS 3 Zrotation Xrotation Yrotation
						JOINT RightElbow
						{
OFFSET 0 -5.490200 0.000000
CHANNELS 3 Zrotation Xrotation Yrotation
							JOINT RightWrist
							{
OFFSET 0 -3.206590 -0.000000
CHANNELS 3 Zrotation Xrotation Yrotation
								JOINT rhand
								{
									OFFSET 0 0 0
CHANNELS 3 Zrotation Xrotation Yrotation
									JOINT RFingers
									{
OFFSET 0 -0.691880 0.000000
CHANNELS 3 Zrotation Xrotation Yrotation
										End Site
										{
OFFSET 0 -0.557810 0.000000
										}
									}
								}
								JOINT RThumb
								{
OFFSET 0 0.000000 0.000000
CHANNELS 3 Zrotation Xrotation Yrotation
									End Site
									{
OFFSET 0 -0.566330 0.566330
									}
								}
							}
						}
					}
				}
			}
		}
	}
}
MOTION
Frames: 9
Frame Time: 0.008333333333333333
0.800700 17.430200 9.408600 -8.602000 -4.095100 10.210900 0.000000 0.000000 0.000000 -18.713400 -37.244800 21.381300 0.046500 -1.391900 -3.827800 -6.221000 42.629100 -37.633900 2.126200 9.124200 26.184600 0.000000 0.000000 0.000000 26.315000 26.779900 4.602200 -0.023800 -0.995000 2.735100 0.709400 -18.063100 -17.933000 -0.041000 1.306700 -3.593100 5.080000 1.372600 -0.494100 1.260100 2.196100 -9.578700 -1.661600 0.717300 -9.745000 -10.849100 -15.793600 -0.267800 10.191300 -22.990600 16.647700 2.991100 -11.200100 7.618600 0.000000 0.000000 0.000000 -1.502900 9.108000 5.698400 11.370200 -18.853500 1.893800 13.558500 31.895700 7.977200 0.000000 0.000000 0.000000 -7.125000 0.000000 0.000000 -9.627200 21.817900 -5.435000 0.000000 0.000000 0.000000 4.222800 9.606900 -5.097300 -12.789600 -20.978100 -2.377400 5.104800 44.075200 31.968400 0.000000 0.000000 0.000000 7.125000 0.000000 -0.000000 40.237300 57.121700 -13.409900
0.799957 17.430738 9.407920 -8.554577 -4.053978 10.202440 0.000000 0.000000 0.000000 -18.692374 -37.127340 21.251415 0.045531 -1.376513 -3.785421 -5.238700 41.475119 -39.476802 0.469290 4.393906 12.187683 0.000000 0.000000 0.000000 26.343736 26.992315 4.801391 -0.022200 -0.961037 2.641605 0.740334 -18.314261 -18.037616 -0.000340 0.045977 -0.126472 4.799248 0.927962 -0.675137 1.723137 1.603004 -9.545473 -0.964742 0.474159 -9.655922 -11.875285 -15.362738 -0.328975 10.635090 -22.453252 16.884866 3.309023 -10.962979 7.820061 0.000000 0.000000 0.000000 -2.376381 9.372749 5.125605 11.386816 -18.878755 1.899187 15.657467 27.630624 7.953749 0.000000 0.000000 0.000000 -7.125000 0.000000 0.000000 -8.110795 21.753994 -4.572067 0.000000 0.000000 0.000000 3.382631 9.528797 -3.960232 -12.691277 -20.833172 -2.342372 5.034441 44.412251 31.806366 0.000000 0.000000 0.000000 7.125000 0.000000 0.000000 40.018843 57.010342 -13.206942
0.798402 17.430135 9.408795 -8.752642 -3.999813 10.193392 0.000000 0.000000 0.000000 -18.431994 -37.095771 21.271598 0.047545 -1.407275 -3.870180 -5.360376 41.613518 -39.237852 0.442607 4.268089 11.832232 0.000000 0.000000 0.000000 26.616584 26.970482 4.885784 -0.021268 -0.941416 2.587581 0.751944 -18.371021 -17.994206 -0.002437 -0.203886 0.560207 4.725484 0.435947 -0.765364 2.331717 0.974193 -9.547355 -0.228710 0.200676 -9.649855 -12.922032 -14.958816 -0.563456 10.801565 -21.893368 17.278168 3.538405 -10.726339 8.063633 0.000000 0.000000 0.000000 -3.346062 9.451479 7.005042 11.326062 -18.786341 1.879568 15.600668 27.615324 9.000645 0.000000 0.000000 0.000000 -7.125000 0.000000 0.000000 -8.123696 20.682841 -4.778709 0.000000 0.000000 0.000000 2.294334 9.422039 -2.482846 -12.410299 -20.416887 -2.243594 4.645721 44.749833 31.583836 0.000000 0.000000 0.000000 7.125000 0.000000 0.000000 39.451910 56.918007 -12.884079
0.796456 17.432063 9.432315 -9.312208 -3.632534 10.448534 0.000000 0.000000 0.000000 -17.613827 -37.163279 21.097991 0.051856 -1.469956 -4.042820 -5.446542 41.635790 -38.852817 0.376073 3.937987 10.902471 0.000000 0.000000 0.000000 27.208402 26.554233 4.733119 -0.017419 -0.851697 2.340805 0.733247 -18.202865 -17.893486 -0.025437 -1.029004 2.828664 5.114580 -0.023619 -1.522139 2.952701 0.358941 -9.537043 0.259332 -0.096403 -9.224802 -13.938644 -14.607074 -0.723842 11.144456 -21.444903 17.652146 3.817501 -10.536149 8.315866 0.000000 0.000000 0.000000 -4.148197 9.300805 9.033826 11.121092 -18.473520 1.814150 15.037635 28.041069 10.361714 0.000000 0.000000 0.000000 -7.125000 0.000000 0.000000 -8.496952 19.319786 -5.262815 0.000000 0.000000 0.000000 1.263506 9.144087 -1.155601 -11.931447 -19.701690 -2.079101 4.030007 44.982569 31.430906 0.000000 0.000000 0.000000 7.125000 0.000000 0.000000 38.740871 56.926753 -12.607851
0.797673 17.431452 9.429381 -9.312464 -3.699084 10.451012 0.000000 0.000000 0.000000 -17.625887 -37.133251 21.093656 0.052200 -1.474402 -4.055256 -5.482465 41.701885 -38.853490 0.310236 3.580764 9.900080 0.000000 0.000000 0.000000 27.184218 26.539430 4.672124 -0.018148 -0.868857 2.388006 0.728726 -18.152533 -17.846913 -0.019811 -0.908199 2.496286 5.072982 -0.013417 -1.533658 3.015059 0.373523 -9.516473 0.347175 -0.082198 -9.194717 -14.039107 -14.616158 -0.864384 11.165289 -21.446691 17.709964 3.823448 -10.533317 8.374260 0.000000 0.000000 0.000000 -4.296786 9.247865 9.073617 11.153199 -18.522545 1.824375 14.758841 28.113040 10.159154 0.000000 0.000000 0.000000 -7.125000 0.000000 0.000000 -8.700611 19.542279 -5.346221 0.000000 0.000000 0.000000 1.178565 9.141868 -1.187489 -12.017909 -19.831501 -2.108336 4.235990 44.826119 31.433468 0.000000 0.000000 0.000000 7.125000 0.000000 0.000000 38.933772 56.885540 -12.644312
0.799078 17.430546 9.424828 -9.368955 -3.734661 10.451819 0.000000 0.000000 0.000000 -17.499180 -37.026701 20.994940 0.051676 -1.467109 -4.035020 -5.417560 41.580063 -38.846112 0.319593 3.633961 10.049037 0.000000 0.000000 0.000000 27.236690 26.536130 4.633176 -0.018931 -0.887788 2.440018 0.715181 -18.059543 -17.840856 -0.022235 -0.962067 2.644415 5.223050 0.041780 -1.550608 2.942009 0.448186 -9.540472 0.182010 -0.061453 -9.209694 -13.776831 -14.679223 -0.730823 11.114300 -21.537278 17.553088 3.774909 -10.573378 8.274048 0.000000 0.000000 0.000000 -4.188077 9.406182 7.997206 11.396102 -18.892842 1.902182 14.290123 28.242877 7.673610 0.000000 0.000000 0.000000 -7.125000 0.000000 0.000000 -9.111165 22.097477 -5.077384 0.000000 0.000000 0.000000 1.345550 9.193644 -1.445808 -12.032308 -19.853081 -2.113289 4.312227 44.898153 31.340331 0.000000 0.000000 0.000000 7.125000 0.000000 0.000000 38.918425 56.796119 -12.550034
0.801148 17.428444 9.420355 -9.421890 -3.784344 10.480769 0.000000 0.000000 0.000000 -17.415879 -37.011381 20.940436 0.051611 -1.466097 -4.032332 -5.458917 41.641254 -38.803411 0.318381 3.627020 10.029517 0.000000 0.000000 0.000000 27.250232 26.493333 4.540738 -0.019026 -0.890869 2.448653 0.700808 -17.947205 -17.804391 -0.023096 -0.980912 2.696206 5.346650 0.028607 -1.559924 2.950451 0.434123 -9.534445 0.123318 -0.077818 -9.199446 -13.766845 -14.668347 -0.741863 11.186686 -21.525359 17.463791 3.799035 -10.563234 8.251551 0.000000 0.000000 0.000000 -4.204365 9.364031 8.119019 11.417573 -18.925515 1.909175 14.198067 28.210550 7.745969 0.000000 0.000000 0.000000 -7.125000 0.000000 0.000000 -9.174799 22.027494 -5.128549 0.000000 0.000000 0.000000 1.345367 9.077700 -1.395302 -11.945649 -19.723074 -2.083892 4.236039 44.987165 31.368391 0.000000 0.000000 0.000000 7.125000 0.000000 0.000000 38.873742 56.834116 -12.569701
0.800927 17.426470 9.417851 -9.492817 -3.819583 10.496543 0.000000 0.000000 0.000000 -17.359079 -37.061791 20.979969 0.051643 -1.466722 -4.033962 -5.401030 41.612503 -39.025158 0.331692 3.701348 10.237953 0.000000 0.000000 0.000000 27.331454 26.521224 4.529822 -0.019086 -0.891678 2.450929 0.707873 -17.956278 -17.719568 -0.018335 -0.873786 2.401647 5.415809 0.023171 -1.562260 2.972010 0.432212 -9.567305 0.108824 -0.084381 -9.236142 -13.724176 -14.625460 -0.625158 11.159170 -21.466005 17.393098 3.805399 -10.541727 8.191292 0.000000 0.000000 0.000000 -4.196408 9.421526 8.161446 11.446986 -18.970194 1.918719 14.018534 28.219661 7.687112 0.000000 0.000000 0.000000 -7.125000 0.000000 0.000000 -9.307312 22.094267 -5.190164 0.000000 0.000000 0.000000 1.401082 9.145199 -1.351374 -11.953891 -19.735437 -2.086678 4.184345 44.820209 31.517488 0.000000 0.000000 0.000000 7.125000 0.000000 0.000000 38.963745 56.962644 -12.732160
0.800748 17.426001 9.416301 -9.577555 -3.866992 10.474817 0.000000 0.000000 0.000000 -17.220642 -36.927267 20.940984 0.052498 -1.478672 -4.066872 -5.439113 41.626663 -38.865915 0.322874 3.652156 10.099997 0.000000 0.000000 0.000000 27.454365 26.531988 4.573845 -0.019051 -0.891416 2.449995 0.702261 -17.927308 -17.738747 -0.019144 -0.893750 2.456490 5.502770 0.031683 -1.518697 2.994669 0.452676 -9.579316 0.083987 -0.081111 -9.275965 -13.819365 -14.597915 -0.605411 11.316009 -21.461277 17.413035 3.868762 -10.535356 8.223153 0.000000 0.000000 0.000000 -4.196060 9.425400 8.210463 11.473550 -19.010446 1.927335 13.874479 28.297314 7.391325 0.000000 0.000000 0.000000 -7.125000 0.000000 0.000000 -9.425139 22.399970 -5.190804 0.000000 0.000000 0.000000 1.475341 9.236937 -1.439539 -12.012465 -19.823272 -2.106537 4.480397 44.665841 31.586367 0.000000 0.000000 0.000000 7.125000 0.000000 0.000000 39.301725 56.954743 -12.860182
